<?xml version="1.0" encoding="utf-8"?>
<!-- Generator: Adobe Illustrator 15.0.0, SVG Export Plug-In . SVG Version: 6.00 Build 0)  -->
<!DOCTYPE svg PUBLIC "-//W3C//DTD SVG 1.1//EN" "http://www.w3.org/Graphics/SVG/1.1/DTD/svg11.dtd">
<svg version="1.1" id="Layer_1" xmlns="http://www.w3.org/2000/svg" xmlns:xlink="http://www.w3.org/1999/xlink" x="0px" y="0px"
	 width="240px" height="80px" viewBox="0 0 240 80" enable-background="new 0 0 240 80" xml:space="preserve">
<g id="guides" display="none">
</g>
<g>
	<g>
		<path fill="#FFFFFF" d="M29.55,10v59.955h48.157l0.02-2.335H32.021V12.508h177.676V67.62h-46.184l-0.041,2.335h48.715V10H29.55z
			 M88.463,68.508c0.417-0.066,0.697-0.365,0.697-0.802c0-0.659-0.455-1.083-1.463-1.083h-1.912v3.922h2.042
			c0.914,0,1.451-0.398,1.451-1.077C89.279,68.907,88.924,68.604,88.463,68.508z M86.813,67.463h0.748
			c0.361,0,0.504,0.162,0.504,0.367c0,0.188-0.143,0.35-0.504,0.35h-0.748V67.463z M87.661,69.698h-0.848v-0.729h0.841
			c0.373,0,0.535,0.156,0.535,0.368S88.027,69.698,87.661,69.698z M91.737,66.623l-1.562,3.922h1.064l0.292-0.759h1.532l0.292,0.759
			h1.127l-1.562-3.922H91.737z M91.836,68.994l0.449-1.157h0.025l0.448,1.157H91.836z M98.191,68.877
			c0.479-0.062,0.833-0.438,0.833-1.01c0-0.766-0.503-1.244-1.519-1.244h-1.979v3.922h1.04v-1.302h0.704
			c0.354,0,0.548,0.1,0.579,0.548c0.031,0.404,0.081,0.646,0.161,0.754h1.071c-0.13-0.145-0.148-0.318-0.205-0.902
			C98.833,69.188,98.596,68.956,98.191,68.877z M97.32,68.43h-0.753v-0.959h0.753c0.447,0,0.673,0.166,0.673,0.484
			C97.993,68.314,97.767,68.43,97.32,68.43z M105.219,69.666c0.279-0.354,0.478-0.759,0.597-1.126l-0.909-0.037
			c-0.075,0.211-0.162,0.41-0.274,0.585l-0.541-0.529c0.535-0.285,0.765-0.548,0.765-1.062c0-0.521-0.429-0.946-1.213-0.946
			c-0.697,0-1.313,0.388-1.313,1.07c0,0.366,0.143,0.593,0.367,0.841c-0.536,0.273-0.797,0.572-0.797,1.045
			c0,0.742,0.629,1.115,1.458,1.115c0.442,0,0.827-0.124,1.158-0.323c0.348,0.269,0.622,0.3,0.808,0.3
			c0.299,0,0.53-0.074,0.642-0.162v-0.61c-0.137,0.032-0.218,0.045-0.323,0.045C105.45,69.866,105.362,69.805,105.219,69.666z
			 M103.414,69.848c-0.287,0-0.504-0.117-0.504-0.396c0-0.2,0.117-0.344,0.304-0.461l0.729,0.746
			C103.781,69.805,103.606,69.848,103.414,69.848z M103.588,68.066c-0.144-0.137-0.293-0.293-0.293-0.479
			c0-0.188,0.137-0.33,0.349-0.33c0.21,0,0.324,0.144,0.324,0.317C103.968,67.793,103.875,67.918,103.588,68.066z M111.605,68.877
			c0.479-0.062,0.834-0.438,0.834-1.01c0-0.766-0.504-1.244-1.52-1.244h-1.98v3.922h1.04v-1.302h0.704
			c0.355,0,0.548,0.1,0.579,0.548c0.032,0.404,0.083,0.646,0.163,0.754h1.072c-0.132-0.145-0.15-0.318-0.206-0.902
			C112.246,69.188,112.01,68.956,111.605,68.877z M110.734,68.43h-0.754v-0.959h0.754c0.448,0,0.671,0.166,0.671,0.484
			C111.405,68.314,111.182,68.43,110.734,68.43z M114.691,68.994h1.538v-0.858h-1.538v-0.642h1.993v-0.871h-3.031v3.922h3.087
			v-0.872h-2.049V68.994z M120.052,68.152l-0.741-0.129c-0.242-0.043-0.393-0.112-0.393-0.293c0-0.22,0.2-0.354,0.548-0.354
			c0.405,0,0.697,0.188,0.729,0.592l0.971-0.02c-0.018-0.871-0.604-1.4-1.686-1.4c-0.979,0-1.602,0.479-1.602,1.276
			c0,0.684,0.448,1.046,1.091,1.164l0.715,0.123c0.299,0.058,0.53,0.095,0.53,0.324c0,0.219-0.237,0.351-0.604,0.351
			c-0.436,0-0.815-0.17-0.854-0.661l-0.971,0.029c0,0.947,0.76,1.465,1.824,1.465c0.915,0,1.638-0.417,1.638-1.251
			C121.247,68.727,120.872,68.298,120.052,68.152z M122.335,67.494h1.347v3.051h1.051v-3.051h1.363v-0.871h-3.761V67.494z
			 M128.561,66.623l-1.562,3.922h1.063l0.293-0.759h1.531l0.293,0.759h1.127l-1.562-3.922H128.561z M128.658,68.994l0.449-1.157
			h0.023l0.448,1.157H128.658z M134.834,68.814c0,0.597-0.182,0.914-0.729,0.914c-0.543,0-0.729-0.317-0.729-0.914v-2.191h-1.053
			v2.365c0,1.146,0.771,1.631,1.778,1.631c1.01,0,1.787-0.485,1.787-1.631v-2.365h-1.059v2.191H134.834z M139.869,68.877
			c0.479-0.062,0.835-0.438,0.835-1.01c0-0.766-0.505-1.244-1.519-1.244h-1.98v3.922h1.04v-1.302h0.703
			c0.354,0,0.548,0.1,0.579,0.548c0.031,0.404,0.08,0.646,0.16,0.754h1.07c-0.13-0.145-0.148-0.318-0.205-0.902
			C140.512,69.188,140.273,68.956,139.869,68.877z M138.998,68.43h-0.753v-0.959h0.753c0.447,0,0.673,0.166,0.673,0.484
			C139.671,68.314,139.445,68.43,138.998,68.43z M143.182,66.623l-1.562,3.922h1.063l0.291-0.759h1.531l0.293,0.759h1.127
			l-1.562-3.922H143.182z M143.279,68.994l0.449-1.157h0.022l0.448,1.157H143.279z M149.512,68.795l-1.531-2.172h-1.008v3.922h0.971
			v-2.322l1.691,2.322h0.848v-3.922h-0.971V68.795z M151.684,67.494h1.344v3.051h1.055v-3.051h1.361v-0.871h-3.76V67.494
			L151.684,67.494z M51.513,33.196h5.748v-5.748c0,0,0.056-9.049-8.195-9.049c-8.252,0-8.196,9.049-8.196,9.049V52.09
			c0,0-0.057,9.049,8.196,9.049c8.251,0,8.195-9.049,8.195-9.049v-5.748h-5.748v5.748c0,0,0.228,3.073-2.333,3.073
			c-2.163,0-2.163-3.073-2.163-3.073V27.449c0,0,0-3.073,2.163-3.073c2.561,0,2.333,3.073,2.333,3.073V33.196z M63.235,60.686h5.976
			l1.138-8.537h5.919l1.138,8.537h5.976l-6.318-41.83h-7.511L63.235,60.686z M72.967,32.457l0.17-1.082h0.341l0.171,1.082
			l1.765,13.203h-4.211L72.967,32.457z M102.502,42.586h-0.342l-0.512-1.934l-5.977-21.797h-5.462v41.829h5.635V36.954h0.341
			l0.512,1.934l5.976,21.797h5.464V18.855h-5.634L102.502,42.586L102.502,42.586z M114.509,25.172h5.805v35.512h6.146V25.172h5.804
			v-6.317h-17.755V25.172z M144.784,18.855h-6.146v41.829h6.146V18.855z M171.246,60.686V18.855h-5.635v23.73h-0.342l-0.513-1.935
			l-5.976-21.796h-5.465v41.83h5.635V36.954h0.342l0.514,1.934l5.976,21.797H171.246z M191.105,52.146l1.14,8.537h5.976
			l-6.316-41.83h-7.512l-6.316,41.83h5.976l1.14-8.537H191.105z M187.807,32.457l0.172-1.082h0.34l0.173,1.082l1.764,13.203h-4.211
			L187.807,32.457z"/>
	</g>
</g>
</svg>
