<?xml version="1.0" encoding="utf-8"?>
<!-- Generator: Adobe Illustrator 15.0.0, SVG Export Plug-In . SVG Version: 6.00 Build 0)  -->
<!DOCTYPE svg PUBLIC "-//W3C//DTD SVG 1.1//EN" "http://www.w3.org/Graphics/SVG/1.1/DTD/svg11.dtd">
<svg version="1.1" id="Layer_1" xmlns="http://www.w3.org/2000/svg" xmlns:xlink="http://www.w3.org/1999/xlink" x="0px" y="0px"
	 width="240px" height="80px" viewBox="0 0 240 80" enable-background="new 0 0 240 80" xml:space="preserve">
<g id="guides" display="none">
</g>
<g opacity="0.6" enable-background="new    ">
	<path fill="#FFFFFF" d="M94.112,40.186h-3.713V25.764h-4.755v-3.09h13.224v3.09h-4.755V40.186z"/>
	<path fill="#FFFFFF" d="M111.648,40.186h-10.085V22.674h10.085v3.042h-6.373v3.846h5.929v3.042h-5.929v4.516h6.373V40.186z"/>
	<path fill="#FFFFFF" d="M122.739,25.513c-1.397,0-2.479,0.525-3.246,1.575s-1.15,2.514-1.15,4.39c0,3.905,1.465,5.857,4.396,5.857
		c1.229,0,2.72-0.308,4.468-0.923v3.114c-1.438,0.6-3.042,0.898-4.814,0.898c-2.548,0-4.497-0.772-5.846-2.317
		c-1.35-1.545-2.024-3.763-2.024-6.654c0-1.82,0.332-3.415,0.994-4.785c0.663-1.369,1.615-2.419,2.857-3.149
		c1.242-0.731,2.697-1.097,4.366-1.097c1.701,0,3.409,0.412,5.127,1.234l-1.198,3.019c-0.654-0.312-1.313-0.583-1.977-0.815
		C124.029,25.628,123.379,25.513,122.739,25.513z"/>
	<path fill="#FFFFFF" d="M145.282,40.186h-3.701v-7.559h-6.936v7.559h-3.713V22.674h3.713v6.863h6.936v-6.863h3.701V40.186z"/>
	<path fill="#FFFFFF" d="M155.152,29.885l3.652-7.211h4.002l-5.811,10.696v6.815h-3.688V33.49l-5.81-10.816h4.024L155.152,29.885z"
		/>
</g>
<g id="Vo9kor.tif" display="none">
</g>
<g enable-background="new    ">
	<path fill="#FFFFFF" d="M96.849,59.811l-1.27-4.168h-6.384l-1.27,4.168h-4l6.181-17.584h4.54l6.205,17.584H96.849z M94.693,52.528
		c-1.174-3.777-1.834-5.913-1.982-6.408c-0.147-0.495-0.253-0.887-0.317-1.174c-0.263,1.021-1.018,3.549-2.264,7.582H94.693z"/>
	<path fill="#FFFFFF" d="M120.11,59.811h-4.229l-2.372-9.199c-0.088-0.327-0.238-1.004-0.449-2.03s-0.333-1.715-0.365-2.066
		c-0.048,0.432-0.167,1.124-0.359,2.078c-0.191,0.955-0.339,1.636-0.443,2.043l-2.36,9.175h-4.216l-4.468-17.512h3.653l2.24,9.559
		c0.391,1.765,0.675,3.294,0.851,4.587c0.048-0.455,0.158-1.159,0.33-2.113c0.171-0.954,0.333-1.695,0.485-2.223l2.551-9.81h3.51
		l2.551,9.81c0.112,0.439,0.251,1.11,0.419,2.013c0.168,0.902,0.295,1.677,0.383,2.323c0.08-0.622,0.208-1.399,0.383-2.329
		c0.176-0.931,0.335-1.684,0.479-2.258l2.227-9.559h3.654L120.11,59.811z"/>
	<path fill="#FFFFFF" d="M137.49,59.811l-1.27-4.168h-6.384l-1.271,4.168h-4l6.181-17.584h4.54l6.204,17.584H137.49z
		 M135.334,52.528c-1.174-3.777-1.834-5.913-1.982-6.408c-0.146-0.495-0.253-0.887-0.316-1.174
		c-0.264,1.021-1.019,3.549-2.264,7.582H135.334z"/>
	<path fill="#FFFFFF" d="M147.408,53.091v6.72h-3.713V42.299h5.103c2.38,0,4.14,0.434,5.282,1.3s1.713,2.182,1.713,3.946
		c0,1.03-0.283,1.946-0.851,2.749s-1.37,1.432-2.407,1.887c2.635,3.937,4.352,6.48,5.15,7.63h-4.121l-4.18-6.72H147.408z
		 M147.408,50.072h1.197c1.174,0,2.041-0.195,2.6-0.587c0.559-0.391,0.839-1.006,0.839-1.845c0-0.83-0.286-1.421-0.856-1.772
		c-0.571-0.352-1.455-0.527-2.653-0.527h-1.126V50.072z"/>
	<path fill="#FFFFFF" d="M174.419,50.887c0,2.883-0.821,5.091-2.462,6.624s-4.01,2.3-7.108,2.3h-4.959V42.299h5.497
		c2.859,0,5.08,0.755,6.66,2.264C173.629,46.071,174.419,48.18,174.419,50.887z M170.562,50.982c0-3.761-1.662-5.642-4.983-5.642
		h-1.977v11.403h1.593C168.773,56.744,170.562,54.824,170.562,50.982z"/>
	<path fill="#FFFFFF" d="M188.385,54.947c0,1.581-0.568,2.827-1.707,3.737c-1.137,0.91-2.721,1.365-4.748,1.365
		c-1.869,0-3.521-0.351-4.959-1.054v-3.45c1.182,0.527,2.182,0.898,3,1.114s1.566,0.323,2.246,0.323
		c0.814,0,1.439-0.155,1.875-0.467c0.435-0.312,0.652-0.774,0.652-1.39c0-0.343-0.096-0.648-0.287-0.916
		c-0.192-0.268-0.474-0.525-0.846-0.772c-0.371-0.248-1.127-0.643-2.27-1.187c-1.07-0.503-1.873-0.985-2.407-1.449
		c-0.535-0.463-0.962-1.002-1.282-1.616c-0.318-0.615-0.479-1.334-0.479-2.156c0-1.55,0.525-2.768,1.575-3.653
		c1.05-0.887,2.501-1.33,4.354-1.33c0.91,0,1.778,0.108,2.604,0.323c0.827,0.216,1.69,0.52,2.593,0.911l-1.197,2.887
		c-0.934-0.384-1.707-0.651-2.318-0.803c-0.61-0.151-1.211-0.228-1.803-0.228c-0.702,0-1.241,0.163-1.616,0.491
		c-0.376,0.327-0.563,0.754-0.563,1.281c0,0.327,0.076,0.613,0.229,0.856c0.15,0.244,0.393,0.479,0.725,0.707
		c0.33,0.228,1.115,0.637,2.354,1.228c1.637,0.782,2.759,1.567,3.365,2.354C188.082,52.842,188.385,53.806,188.385,54.947z"/>
</g>
<path fill="#FFFFFF" d="M79,60H56V22.5h23l0.003,2.253l-17.42,2.5v1.648h17.42v1.918l-17.42,2.5v1.648h17.42v2.024l-17.42,2.5v1.647
	h17.42v1.918l-17.42,2.5v1.647h17.42L79,60z"/>
</svg>
