<?xml version="1.0" encoding="utf-8"?>
<!-- Generator: Adobe Illustrator 15.0.0, SVG Export Plug-In . SVG Version: 6.00 Build 0)  -->
<!DOCTYPE svg PUBLIC "-//W3C//DTD SVG 1.1//EN" "http://www.w3.org/Graphics/SVG/1.1/DTD/svg11.dtd">
<svg version="1.1" id="Layer_1" xmlns="http://www.w3.org/2000/svg" xmlns:xlink="http://www.w3.org/1999/xlink" x="0px" y="0px"
	 width="240px" height="80px" viewBox="0 0 240 80" enable-background="new 0 0 240 80" xml:space="preserve">
<g id="guides" display="none">
</g>
<g enable-background="new    ">
	<path fill="#FFFFFF" d="M56.321,40.627c0,4.466-1.271,7.886-3.813,10.261s-6.213,3.562-11.012,3.562h-7.682V27.323h8.517
		c4.428,0,7.867,1.169,10.316,3.507S56.321,36.434,56.321,40.627z M50.347,40.775c0-5.826-2.573-8.739-7.719-8.739h-3.062V49.7
		h2.468C47.576,49.7,50.347,46.726,50.347,40.775z"/>
	<path fill="#FFFFFF" d="M77.566,54.45H61.943V27.323h15.623v4.713h-9.871v5.956h9.185v4.713h-9.185V49.7h9.871V54.45z"/>
	<path fill="#FFFFFF" d="M99.238,46.917c0,2.449-0.881,4.379-2.644,5.789s-4.215,2.115-7.357,2.115
		c-2.895,0-5.455-0.544-7.682-1.633v-5.344c1.831,0.816,3.38,1.392,4.648,1.726c1.268,0.334,2.427,0.501,3.479,0.501
		c1.262,0,2.229-0.241,2.904-0.724c0.674-0.482,1.011-1.199,1.011-2.152c0-0.531-0.148-1.005-0.445-1.419
		c-0.297-0.415-0.733-0.813-1.308-1.197c-0.575-0.383-1.748-0.995-3.516-1.837c-1.658-0.779-2.901-1.527-3.729-2.245
		c-0.829-0.717-1.491-1.552-1.985-2.505c-0.495-0.952-0.742-2.065-0.742-3.34c0-2.399,0.813-4.286,2.44-5.659
		c1.626-1.373,3.875-2.06,6.745-2.06c1.41,0,2.755,0.167,4.036,0.501s2.619,0.804,4.017,1.41l-1.855,4.472
		c-1.447-0.594-2.644-1.008-3.59-1.243c-0.946-0.234-1.877-0.353-2.792-0.353c-1.089,0-1.924,0.254-2.505,0.761
		c-0.582,0.508-0.872,1.169-0.872,1.985c0,0.508,0.117,0.949,0.353,1.327c0.235,0.377,0.609,0.742,1.123,1.094
		c0.513,0.354,1.729,0.987,3.646,1.902c2.536,1.213,4.273,2.428,5.214,3.646C98.768,43.654,99.238,45.148,99.238,46.917z"/>
	<path fill="#FFFFFF" d="M104.155,54.45V27.323h5.752V54.45H104.155z"/>
	<path fill="#FFFFFF" d="M127.033,39.217h10.762v14.064c-1.744,0.569-3.387,0.968-4.926,1.196c-1.541,0.229-3.115,0.344-4.723,0.344
		c-4.095,0-7.221-1.203-9.379-3.609c-2.159-2.405-3.238-5.859-3.238-10.362c0-4.379,1.252-7.793,3.757-10.242
		c2.504-2.449,5.977-3.674,10.418-3.674c2.783,0,5.467,0.557,8.053,1.67l-1.911,4.602c-1.979-0.989-4.039-1.484-6.179-1.484
		c-2.486,0-4.479,0.835-5.975,2.505c-1.497,1.67-2.245,3.915-2.245,6.735c0,2.944,0.603,5.192,1.81,6.745
		c1.205,1.552,2.959,2.328,5.26,2.328c1.199,0,2.418-0.123,3.655-0.371v-5.659h-5.14V39.217z"/>
	<path fill="#FFFFFF" d="M168.317,54.45h-7.311l-11.801-20.521h-0.167c0.234,3.625,0.353,6.21,0.353,7.756V54.45h-5.14V27.323h7.255
		l11.782,20.317h0.13c-0.186-3.525-0.278-6.018-0.278-7.478v-12.84h5.177V54.45z"/>
	<path fill="#FFFFFF" d="M197.226,27.323v17.553c0,2.004-0.448,3.761-1.346,5.27c-0.896,1.51-2.192,2.666-3.887,3.47
		c-1.695,0.805-3.699,1.206-6.012,1.206c-3.488,0-6.197-0.894-8.127-2.682c-1.93-1.787-2.895-4.232-2.895-7.338V27.323h5.733V43.93
		c0,2.091,0.42,3.625,1.262,4.602c0.841,0.978,2.232,1.466,4.175,1.466c1.88,0,3.244-0.492,4.092-1.475
		c0.847-0.984,1.271-2.526,1.271-4.63V27.323H197.226z"/>
	<path fill="#FFFFFF" d="M219.881,46.917c0,2.449-0.882,4.379-2.644,5.789c-1.764,1.41-4.216,2.115-7.357,2.115
		c-2.895,0-5.455-0.544-7.682-1.633v-5.344c1.83,0.816,3.38,1.392,4.648,1.726c1.268,0.334,2.427,0.501,3.479,0.501
		c1.262,0,2.229-0.241,2.904-0.724c0.674-0.482,1.011-1.199,1.011-2.152c0-0.531-0.148-1.005-0.445-1.419
		c-0.297-0.415-0.733-0.813-1.308-1.197c-0.576-0.383-1.748-0.995-3.517-1.837c-1.658-0.779-2.901-1.527-3.729-2.245
		c-0.829-0.717-1.491-1.552-1.985-2.505c-0.495-0.952-0.742-2.065-0.742-3.34c0-2.399,0.813-4.286,2.44-5.659
		c1.626-1.373,3.874-2.06,6.744-2.06c1.41,0,2.756,0.167,4.035,0.501c1.281,0.334,2.619,0.804,4.018,1.41l-1.855,4.472
		c-1.447-0.594-2.645-1.008-3.59-1.243c-0.947-0.234-1.878-0.353-2.793-0.353c-1.089,0-1.924,0.254-2.505,0.761
		c-0.582,0.508-0.872,1.169-0.872,1.985c0,0.508,0.117,0.949,0.353,1.327c0.234,0.377,0.609,0.742,1.122,1.094
		c0.514,0.354,1.729,0.987,3.646,1.902c2.535,1.213,4.273,2.428,5.214,3.646C219.41,43.654,219.881,45.148,219.881,46.917z"/>
</g>
<g enable-background="new    ">
	<path fill="#FFFFFF" d="M19.1,21.584l4,1.32v-4.2h3.919v4.16l3.959-1.28l1.24,3.72l-3.959,1.319l2.439,3.359l-3.16,2.32
		l-2.479-3.359l-2.439,3.359l-3.199-2.28l2.439-3.399L17.9,25.344L19.1,21.584z"/>
</g>
</svg>
