<?xml version="1.0" encoding="utf-8"?>
<!-- Generator: Adobe Illustrator 15.0.0, SVG Export Plug-In . SVG Version: 6.00 Build 0)  -->
<!DOCTYPE svg PUBLIC "-//W3C//DTD SVG 1.1//EN" "http://www.w3.org/Graphics/SVG/1.1/DTD/svg11.dtd">
<svg version="1.1" id="Layer_1" xmlns="http://www.w3.org/2000/svg" xmlns:xlink="http://www.w3.org/1999/xlink" x="0px" y="0px"
	 width="240px" height="80px" viewBox="0 0 240 80" enable-background="new 0 0 240 80" xml:space="preserve">
<g id="guides" display="none">
</g>
<g enable-background="new    ">
	<path d="M83.848,25.07v26.98h-5.206V40.536H66.406V52.05h-5.244V25.07h5.244v10.906h12.236V25.07H83.848z"/>
	<path d="M109.649,29.668h-8.588V52.05h-5.244V29.668h-8.626V25.07h22.458V29.668z"/>
	<path d="M135.033,52.05v-17.86l-6.954,13.301h-2.851l-6.953-13.301v17.86h-5.244V25.07h5.624l7.979,15.352l8.057-15.352h5.586
		v26.98H135.033z"/>
	<path d="M145.9,52.05V25.07h5.244v22.382H164.9v4.598H145.9z"/>
	<path d="M176.453,39.928c1.266,0,2.443,0.209,3.533,0.627s2.033,1.007,2.832,1.768c0.797,0.76,1.418,1.672,1.861,2.735
		c0.443,1.064,0.665,2.242,0.665,3.534c0,1.368-0.254,2.609-0.76,3.724c-0.507,1.115-1.204,2.071-2.091,2.869
		s-1.938,1.419-3.153,1.862c-1.216,0.442-2.534,0.665-3.952,0.665c-1.977,0-3.743-0.418-5.301-1.254
		c-1.559-0.836-2.742-1.977-3.553-3.42l2.926-3.04c0.734,0.987,1.627,1.773,2.679,2.355c1.051,0.583,2.147,0.874,3.287,0.874
		c1.368,0,2.489-0.412,3.362-1.234c0.875-0.823,1.312-1.919,1.312-3.287c0-1.317-0.412-2.381-1.235-3.192
		c-0.823-0.811-1.868-1.216-3.135-1.216c-0.836,0-1.615,0.19-2.337,0.57s-1.298,0.899-1.729,1.558h-4.445
		c0-0.076,0.051-0.361,0.152-0.854c0.101-0.494,0.228-1.127,0.379-1.9c0.152-0.772,0.317-1.634,0.494-2.584
		c0.178-0.95,0.367-1.919,0.57-2.907c0.456-2.33,0.963-4.939,1.52-7.828h13.301v4.637h-9.614l-1.063,6.042
		c0.304-0.329,0.746-0.596,1.33-0.799C174.869,40.029,175.592,39.928,176.453,39.928z"/>
</g>
</svg>
