<?xml version="1.0" encoding="utf-8"?>
<!-- Generator: Adobe Illustrator 15.0.0, SVG Export Plug-In . SVG Version: 6.00 Build 0)  -->
<!DOCTYPE svg PUBLIC "-//W3C//DTD SVG 1.1//EN" "http://www.w3.org/Graphics/SVG/1.1/DTD/svg11.dtd">
<svg version="1.1" id="Layer_1" xmlns="http://www.w3.org/2000/svg" xmlns:xlink="http://www.w3.org/1999/xlink" x="0px" y="0px"
	 width="240px" height="80px" viewBox="0 0 240 80" enable-background="new 0 0 240 80" xml:space="preserve">
<g id="guides" display="none">
</g>
<g>
	<g>
		<path fill="#FFFFFF" d="M88.677,68.363h61.024v-5.65H88.677V68.363z M53.675,32.122l-9.038-17.387h-6.369v30.557h5.939V25.064
			l7.875,15.062h3.228l7.876-15.062v20.228h5.939V14.735h-6.326L53.675,32.122z M94.989,45.292h6.283L89.266,14.735h-4.82
			l-12.05,30.557h6.283l2.797-7.618h10.717L94.989,45.292z M82.466,33.5l4.39-12.352l4.26,12.352H82.466z M106.76,40.579
			c1.276,1.478,2.797,2.676,4.562,3.594c1.765,0.918,3.708,1.377,5.831,1.377c1.205,0,2.425-0.157,3.658-0.474
			c1.233-0.316,2.41-0.774,3.529-1.377c1.119-0.604,2.115-1.342,2.991-2.217c0.875-0.875,1.542-1.886,2.001-3.033l-4.863-2.798
			c-0.344,0.833-0.789,1.543-1.334,2.13c-0.545,0.589-1.141,1.069-1.785,1.442c-0.646,0.373-1.312,0.646-2.001,0.817
			s-1.363,0.258-2.022,0.258c-1.263,0-2.425-0.286-3.486-0.86c-1.062-0.573-1.973-1.334-2.732-2.28
			c-0.761-0.947-1.35-2.045-1.765-3.293c-0.416-1.248-0.624-2.546-0.624-3.895c0-1.205,0.179-2.417,0.538-3.637
			c0.358-1.219,0.889-2.31,1.592-3.271c0.703-0.961,1.585-1.743,2.646-2.346s2.296-0.904,3.701-0.904c0.631,0,1.292,0.08,1.98,0.237
			c0.688,0.158,1.355,0.409,2.001,0.753c0.646,0.345,1.24,0.811,1.786,1.398c0.545,0.589,0.989,1.312,1.334,2.174l4.562-3.142
			c-0.946-1.979-2.418-3.587-4.411-4.82c-1.994-1.233-4.354-1.851-7.079-1.851c-2.324,0-4.39,0.445-6.197,1.334
			c-1.808,0.89-3.336,2.052-4.584,3.486s-2.202,3.062-2.861,4.885c-0.661,1.822-0.99,3.665-0.99,5.53
			c0,1.951,0.352,3.866,1.055,5.745C104.492,37.423,105.482,39.102,106.76,40.579z M142.329,14.735l-12.052,30.557h6.285
			l2.797-7.618h10.716l2.798,7.618h6.283l-12.008-30.557H142.329z M140.35,33.5l4.391-12.352L149,33.5H140.35z M198.146,14.735
			l-8.649,23.757l-3.874-9.77l5.208-13.901h-5.509l-3.443,10.114l-3.441-10.114h-5.467l5.121,13.901l-3.787,9.77l-8.693-23.757
			H159.2l12.396,30.557h4.991l5.293-12.825l5.294,12.825h4.992l12.438-30.557H198.146z"/>
	</g>
</g>
</svg>
