<?xml version="1.0" encoding="utf-8"?>
<!-- Generator: Adobe Illustrator 15.0.0, SVG Export Plug-In . SVG Version: 6.00 Build 0)  -->
<!DOCTYPE svg PUBLIC "-//W3C//DTD SVG 1.1//EN" "http://www.w3.org/Graphics/SVG/1.1/DTD/svg11.dtd">
<svg version="1.1" id="Layer_1" xmlns="http://www.w3.org/2000/svg" xmlns:xlink="http://www.w3.org/1999/xlink" x="0px" y="0px"
	 width="240px" height="80px" viewBox="0 0 240 80" enable-background="new 0 0 240 80" xml:space="preserve">
<g id="guides" display="none">
</g>
<g>
	<g>
		<path fill="#333333" d="M54.73,58.121l-0.365-0.18c-0.054-0.032-0.118-0.106-0.129-0.149l-6.858-26.881
			c-0.021-0.085-0.001-0.182,0.03-0.235l0.245-0.29c0.032-0.054,0.053-0.149,0.031-0.235l-0.196-0.77
			c-0.022-0.085-0.076-0.117-0.161-0.095l-4.23,1.079c-0.086,0.021-0.118,0.075-0.139,0.172l-2.069,12.227
			c-0.032,0.055-0.075,0.064-0.128,0.032l-7.675-9.74c-0.064-0.074-0.161-0.095-0.203-0.084l-4.231,1.079
			c-0.085,0.022-0.117,0.076-0.096,0.161l0.196,0.77c0.022,0.085,0.087,0.16,0.141,0.191l0.354,0.138
			c0.097,0.021,0.161,0.096,0.183,0.181l6.858,26.881c0.022,0.085-0.01,0.139-0.084,0.203l-0.233,0.333
			c-0.032,0.054-0.053,0.149-0.042,0.192l0.196,0.77c0.021,0.086,0.075,0.117,0.16,0.096l4.744-1.21
			c0.085-0.022,0.117-0.075,0.096-0.161l-0.196-0.77c-0.011-0.043-0.076-0.117-0.172-0.139l-0.365-0.181
			c-0.054-0.03-0.118-0.106-0.129-0.147l-4.83-18.934c-0.011-0.042-0.011-0.042,0.043-0.011l7.674,9.739
			c0.054,0.031,0.097,0.021,0.128-0.032l2.069-12.226c0.032-0.054,0.032-0.054,0.043-0.011l4.831,18.932
			c0.011,0.043-0.011,0.14-0.042,0.192l-0.234,0.333c-0.031,0.055-0.053,0.15-0.041,0.192l0.196,0.771
			c0.021,0.086,0.075,0.116,0.16,0.096l4.701-1.199c0.086-0.021,0.117-0.076,0.096-0.161l-0.196-0.771
			C54.849,58.229,54.784,58.152,54.73,58.121z M68.388,31.303c-0.131-0.738-1.54-5.908-7.142-4.916l-2.042,0.362
			c-5.602,0.992-5.148,6.332-5.018,7.07l3.372,19.021c0.131,0.738,1.54,5.908,7.142,4.915l2.041-0.36
			c5.603-0.994,5.148-6.332,5.018-7.07L68.388,31.303z M67.586,52.049c-0.212,0.575-0.562,1.131-1.561,1.307l-2.041,0.362
			c-1.042,0.185-1.562-0.217-1.957-0.684c-0.185-0.281-0.333-0.613-0.445-0.996L58.241,33.19c-0.019-0.355,0.007-0.718,0.083-1.045
			c0.212-0.575,0.554-1.173,1.597-1.358l2.041-0.361c0.998-0.177,1.525,0.267,1.922,0.734c0.184,0.281,0.332,0.613,0.438,0.952
			l3.34,18.848C67.688,51.359,67.662,51.723,67.586,52.049z M89.431,48.186l-0.727-6.131c-0.01-0.089-0.064-0.171-0.157-0.205
			l-4.175-1.503l-0.415-0.128c-0.098-0.077-0.137-0.028-0.121,0.103l0.119,1.008c0.006,0.044,0.06,0.126,0.119,0.252l0.423,0.571
			c0.049,0.039,0.104,0.121,0.113,0.209l0.731,6.176c0.003,0.398-0.043,0.76-0.138,1.082c-0.245,0.562-0.67,1.102-1.677,1.22
			l-2.015,0.239c-1.051,0.124-1.546-0.307-1.915-0.795c-0.168-0.291-0.297-0.631-0.388-1.021l-2.251-19.008
			c0.003-0.355,0.049-0.716,0.144-1.038c0.245-0.562,0.62-1.14,1.672-1.264l2.015-0.238c1.007-0.12,1.551,0.349,1.92,0.838
			c0.168,0.291,0.297,0.631,0.382,0.977l0.374,3.153c0.01,0.088-0.023,0.18-0.062,0.229l-0.28,0.255
			c-0.082,0.055-0.116,0.147-0.105,0.234l0.094,0.789c0.01,0.087,0.059,0.126,0.146,0.115l0.395-0.047l3.941-0.467
			c0.088-0.01,0.126-0.059,0.116-0.146l-0.556-4.687c-0.088-0.744-1.109-5.997-6.847-5.317l-2.015,0.238
			c-5.432,0.644-5.43,5.528-5.432,6.639l2.303,19.446c0.262,1.079,1.401,5.829,6.832,5.186l2.015-0.237
			c5.124-0.606,5.486-5.047,5.452-6.464L89.431,48.186z M109.31,51.457l-0.599-0.405c-0.094-0.081-0.144-0.168-0.146-0.212
			L101.3,33.966c-0.009-0.132-0.014-0.221,0.027-0.267l4.539-9.558c-0.003-0.044,0.039-0.091,0.121-0.184
			c0.295-0.239,0.835-0.803,1.132-0.998c0.042-0.046,0.08-0.137,0.075-0.225l-0.049-0.793c-0.006-0.088-0.052-0.129-0.141-0.124
			l-5.062,0.311c-0.088,0.006-0.13,0.053-0.124,0.141l0.049,0.792c0.005,0.088,0.055,0.174,0.102,0.215l0.093,0.083
			c0.047,0.041,0.097,0.126,0.058,0.217l-5.239,10.396c0.009,0.132-0.035,0.135-0.044,0.003L96.23,24.07
			c-0.005-0.088,0.033-0.179,0.075-0.226l0.294-0.239c0.086-0.049,0.127-0.096,0.119-0.228l-0.049-0.793
			c-0.005-0.088-0.052-0.129-0.14-0.124l-4.887,0.3c-0.088,0.006-0.129,0.052-0.124,0.141l0.049,0.792
			c0.006,0.088,0.055,0.173,0.102,0.215l0.321,0.201c0.091,0.038,0.141,0.124,0.146,0.212l1.695,27.644
			c0.009,0.133-0.033,0.18-0.118,0.229l-0.295,0.238c-0.041,0.047-0.08,0.139-0.074,0.227l0.049,0.792
			c0.005,0.089,0.052,0.13,0.14,0.124l4.887-0.299c0.088-0.006,0.129-0.053,0.124-0.142l-0.049-0.792
			c-0.006-0.089-0.055-0.174-0.146-0.212l-0.322-0.2c-0.046-0.043-0.096-0.128-0.102-0.216l-0.58-9.464
			c-0.003-0.044,0.033-0.18,0.03-0.223l1.605-3.368c0.041-0.047,0.085-0.05,0.091,0.038l5.41,12.571
			c0.047,0.041,0.008,0.131-0.033,0.178l-0.289,0.328c-0.042,0.047-0.08,0.137-0.075,0.226l0.049,0.792
			c0.006,0.088,0.052,0.13,0.141,0.124l5.062-0.312c0.088-0.004,0.13-0.052,0.124-0.14l-0.049-0.793
			C109.406,51.584,109.356,51.499,109.31,51.457z M128.561,51.285l-0.666-0.523c-0.09-0.087-0.135-0.131-0.135-0.175l-6.017-28.839
			c0-0.089-0.045-0.132-0.134-0.132l-3.88,0.032c-0.089,0.001-0.132,0.046-0.132,0.134l-5.538,28.934
			c-0.043,0.134-0.087,0.179-0.131,0.222l-0.657,0.492c-0.043,0.133-0.087,0.176-0.086,0.221l0.006,0.793
			c0.001,0.09,0.046,0.133,0.134,0.133l5.424-0.045c0.089-0.002,0.133-0.047,0.132-0.135l-0.007-0.793
			c-0.001-0.088-0.045-0.177-0.09-0.221l-0.533-0.48c-0.045-0.043-0.09-0.131-0.09-0.219l0.55-2.828
			c-0.001-0.088,0.043-0.133,0.131-0.133l6.086-0.051c0.09-0.001,0.133,0.043,0.135,0.131l0.597,2.817
			c0.001,0.133-0.043,0.177-0.086,0.222l-0.525,0.489c-0.044,0.045-0.087,0.133-0.087,0.222l0.007,0.795
			c0.001,0.088,0.046,0.131,0.134,0.131l5.424-0.045c0.09-0.002,0.133-0.045,0.133-0.135l-0.008-0.793
			C128.648,51.461,128.604,51.418,128.561,51.285z M122.193,44.281l-4.674,0.039c-0.088,0-0.133-0.043-0.133-0.088l2.325-12.191
			c0.043-0.045,0.043-0.045,0.088-0.001l2.526,12.151C122.326,44.236,122.282,44.279,122.193,44.281z M140.794,21.836l-2.026-0.103
			c-5.461-0.273-6.276,4.543-6.465,5.638l-0.98,19.556c0.076,1.108,0.406,5.981,5.867,6.257l2.026,0.102
			c5.153,0.259,6.253-4.059,6.456-5.46l0.014-0.265l0.31-6.166c0.005-0.09-0.035-0.18-0.121-0.229l-3.864-2.181l-0.388-0.196
			c-0.084-0.093-0.13-0.051-0.138,0.082l-0.051,1.013c-0.002,0.044,0.037,0.135,0.075,0.269l0.321,0.635
			c0.042,0.046,0.081,0.136,0.077,0.226l-0.312,6.209c-0.064,0.396-0.171,0.742-0.318,1.045c-0.334,0.514-0.844,0.974-1.856,0.922
			l-2.024-0.103c-1.059-0.053-1.475-0.56-1.756-1.104c-0.117-0.313-0.188-0.672-0.211-1.069l0.959-19.115
			c0.062-0.351,0.168-0.698,0.314-1c0.335-0.514,0.802-1.02,1.859-0.967l2.025,0.102c1.014,0.051,1.471,0.604,1.752,1.147
			c0.117,0.315,0.188,0.672,0.215,1.026l-0.16,3.172c-0.004,0.088-0.053,0.174-0.1,0.216l-0.318,0.204
			c-0.09,0.04-0.14,0.126-0.144,0.214l-0.04,0.793c-0.004,0.088,0.037,0.135,0.125,0.139l0.396,0.021l3.965,0.198
			c0.088,0.005,0.134-0.037,0.139-0.125l0.236-4.713C146.691,27.475,146.562,22.125,140.794,21.836z M167.215,24.466l-4.867-0.522
			c-0.088-0.009-0.137,0.03-0.146,0.118l-0.085,0.789c-0.016,0.132,0.023,0.18,0.107,0.233l0.283,0.252
			c0.039,0.049,0.073,0.141,0.062,0.229l-1.133,10.568c-0.011,0.088-0.06,0.127-0.146,0.118l-5.876-0.631
			c-0.087-0.01-0.127-0.059-0.117-0.146l1.136-10.568c0.008-0.087,0.062-0.17,0.109-0.209l0.331-0.187
			c0.093-0.034,0.142-0.074,0.155-0.205l0.084-0.79c0.01-0.087-0.029-0.136-0.117-0.146l-4.867-0.522
			c-0.088-0.009-0.137,0.03-0.146,0.118l-0.084,0.789c-0.01,0.088,0.024,0.18,0.063,0.229l0.283,0.252
			c0.083,0.054,0.116,0.146,0.106,0.233l-2.955,27.539c-0.015,0.132-0.062,0.171-0.154,0.206l-0.33,0.186
			c-0.049,0.039-0.104,0.123-0.111,0.211l-0.085,0.789c-0.01,0.088,0.029,0.137,0.117,0.146l4.867,0.522
			c0.088,0.009,0.137-0.03,0.146-0.118l0.084-0.789c0.01-0.089-0.023-0.181-0.107-0.233l-0.282-0.252
			c-0.04-0.049-0.074-0.142-0.063-0.229l1.383-12.894c0.011-0.088,0.059-0.127,0.146-0.118l5.876,0.631
			c0.088,0.01,0.127,0.059,0.118,0.146l-1.385,12.893c-0.01,0.088-0.062,0.172-0.11,0.211l-0.331,0.187
			c-0.093,0.034-0.146,0.117-0.154,0.205l-0.084,0.789c-0.011,0.088,0.028,0.137,0.116,0.146l4.867,0.522
			c0.088,0.009,0.138-0.03,0.146-0.118l0.086-0.789c0.01-0.088-0.025-0.18-0.063-0.229l-0.284-0.252
			c-0.082-0.055-0.121-0.104-0.107-0.233l2.957-27.54c0.009-0.087,0.062-0.17,0.154-0.205l0.33-0.186
			c0.049-0.039,0.102-0.122,0.111-0.21l0.084-0.79C167.342,24.524,167.303,24.476,167.215,24.466z M177.137,27.368l0.338-0.171
			c0.094-0.029,0.146-0.066,0.166-0.197l0.121-0.784c0.014-0.088-0.023-0.138-0.111-0.151l-4.838-0.747
			c-0.088-0.014-0.138,0.023-0.15,0.11l-0.121,0.784c-0.014,0.088,0.018,0.182,0.055,0.231l0.271,0.266
			c0.079,0.057,0.11,0.15,0.097,0.237l-4.229,27.373c-0.021,0.13-0.07,0.166-0.164,0.197l-0.34,0.17
			c-0.049,0.037-0.106,0.117-0.119,0.205l-0.121,0.784c-0.014,0.087,0.021,0.138,0.109,0.15l4.838,0.747
			c0.088,0.014,0.138-0.022,0.15-0.11l0.121-0.784c0.014-0.087-0.018-0.182-0.098-0.238l-0.271-0.265
			c-0.036-0.051-0.067-0.146-0.054-0.231l4.229-27.37C177.029,27.485,177.086,27.405,177.137,27.368z M193.995,59.296
			c-0.034-0.052-0.06-0.147-0.05-0.19l5.688-27.195c0.009-0.044,0.07-0.121,0.122-0.155l0.355-0.195
			c0.097-0.025,0.147-0.06,0.166-0.146l0.162-0.777c0.02-0.087-0.016-0.139-0.103-0.156l-4.792-1.003
			c-0.086-0.018-0.138,0.017-0.156,0.103l-0.162,0.777c-0.01,0.043,0.017,0.138,0.051,0.19l0.248,0.322
			c0.076,0.062,0.103,0.156,0.094,0.199l-3.775,18.045c-0.027,0.13-0.061,0.077-0.052,0.034l-3.913-21.141
			c-0.025-0.096-0.104-0.156-0.146-0.166l-4.272-0.894c-0.086-0.019-0.14,0.016-0.155,0.103l-0.164,0.776
			c-0.009,0.044,0.018,0.139,0.051,0.191l0.248,0.322c0.078,0.061,0.104,0.156,0.094,0.199l-5.689,27.197
			c-0.018,0.086-0.07,0.119-0.164,0.146l-0.356,0.195c-0.054,0.034-0.113,0.11-0.123,0.153l-0.162,0.777
			c-0.019,0.088,0.017,0.139,0.103,0.156l4.793,1.003c0.086,0.019,0.137-0.017,0.155-0.103l0.162-0.776
			c0.01-0.044-0.017-0.14-0.093-0.2l-0.248-0.322c-0.034-0.053-0.061-0.146-0.051-0.189l3.774-18.045
			c0.009-0.043,0.019-0.087,0.052-0.034l3.914,21.14c-0.019,0.088,0.017,0.139,0.146,0.166l4.273,0.895
			c0.086,0.019,0.139-0.016,0.155-0.104l0.163-0.775c0.01-0.043-0.016-0.139-0.094-0.2L193.995,59.296z M214.117,33.937
			l-1.991-0.574c-5.467-1.573-7.41,3.42-7.617,4.141l-5.344,18.562c-0.207,0.721-1.218,5.981,4.249,7.557l1.992,0.572
			c5.467,1.574,7.408-3.42,7.617-4.141l5.344-18.562C218.574,40.771,219.585,35.51,214.117,33.937z M214.359,40.431l-5.297,18.393
			c-0.15,0.369-0.334,0.685-0.547,0.943c-0.442,0.424-1,0.769-1.976,0.486l-1.992-0.572c-1.017-0.293-1.307-0.882-1.457-1.476
			c-0.042-0.334-0.028-0.697,0.039-1.091l5.295-18.393c0.14-0.327,0.322-0.642,0.535-0.901c0.442-0.424,1.013-0.811,2.03-0.518
			l1.992,0.573c0.975,0.281,1.252,0.911,1.401,1.506C214.427,39.716,214.414,40.079,214.359,40.431z"/>
	</g>
</g>
</svg>
