<?xml version="1.0" encoding="utf-8"?>
<!-- Generator: Adobe Illustrator 15.0.0, SVG Export Plug-In . SVG Version: 6.00 Build 0)  -->
<!DOCTYPE svg PUBLIC "-//W3C//DTD SVG 1.1//EN" "http://www.w3.org/Graphics/SVG/1.1/DTD/svg11.dtd">
<svg version="1.1" id="Layer_1" xmlns="http://www.w3.org/2000/svg" xmlns:xlink="http://www.w3.org/1999/xlink" x="0px" y="0px"
	 width="250px" height="120px" viewBox="0 0 250 120" enable-background="new 0 0 250 120" xml:space="preserve">
<g id="signatures_1_">
	<g display="none">
		<path display="inline" fill="#FFFFFF" d="M136.758,85.061c-2.027-0.338-3.514-0.677-5.678-0.52
			c-2.373,0.165-5.851,1.024-8.017-0.019c-1.219-0.587-1.958-0.514-3.313-0.103c-0.803,0.235-2.206,1.387-1.855,0.321
			c0.155-0.474,0.022-0.638-0.242-1.056c-0.062-0.097-0.14-0.122-0.294-0.105c-3.688,0.312-5.887,2.735-9.657,3.044
			c-3.208,0.258-5.255,0.498-7.928,1.676c-2.847,1.255-5.404,2.724-8.231,3.988c-0.818,0.366-4.448,1.584-2.53-1.047
			c0.556-0.755,1.397-1.435,2.176-2.097c1.267-1.085,2.62-2.105,3.757-3.25c0.383-0.38,0.022-1.125-0.712-0.639
			c-2.387,1.56-4.671,3.134-7.578,4.296c-1.292,0.523-4.542,1.377-5.395,0.014c-0.509-0.821,0.527-2.13,0.937-2.901
			c0.195-0.373,0.144-0.612-0.033-0.738c1.821-2.236,3.553-4.496,5.223-6.746c8.817-11.881,15.008-24.571,20.565-37.232
			c2.94-6.706,5.591-13.475,8.867-20.117c3.12-6.332,6.478-12.611,9.525-18.961c0.492-1.026-1.05-0.81-1.543-0.092
			c-18.299,26.551-39.838,52.07-57.608,78.787c-1.904,2.862-3.778,5.735-5.586,8.621c-0.282,0.261-0.564,0.521-0.852,0.777
			c-1.312,1.196-3.428,2.254-4.942,3.371c-1.158,0.864-1.728-1.247-1.188-1.882c0.354-0.41,0.937-0.837,1.141-1.289
			c0.76-1.698,2.009-3.263,2.772-4.956c0.395-0.886-0.798-0.978-1.437-0.296c-1.188,1.277-4.105,7.613-7.032,6.741
			c-1.844-0.551-0.618-3.597-0.461-4.622c0.317-2.061,1.276-3.441,0.001-5.514c-0.147-0.244-0.518-0.34-0.879-0.182
			c-2.472,1.051-4.348,2.75-6.337,4.154c-2.753,1.937-5.116,4.13-7.673,6.187c-2.313,1.847-4.659,3.647-7.5,5.171
			c-0.723,0.378-1.485,0.712-2.285,1.019c-1.976,0.795-0.928-0.774-0.487-1.3c0.924-1.107,1.492-2.255,2.162-3.435
			c3.284-5.815,7.728-11.391,11.975-16.926c2.117-2.761,4.024-5.625,6.352-8.313c1.825-2.11,3.208-4.363,3.924-6.742
			c0.069-0.234-0.089-0.655-0.607-0.536c-2.198,0.52-3.751,1.652-5.042,2.893c-2.625,2.526-5.072,5.122-7.749,7.639
			c-5.653,5.322-10.971,10.773-16.158,16.284c-2.573,2.736-5.241,5.428-8.227,7.984c-1.396,1.19-2.578,2.471-4.039,3.637
			c-0.903,0.716-1.959,1.338-3.044,1.932c-2.029,1.106-0.281-1.344-0.264-1.365c3.848-6.655,9.24-12.628,14.734-18.771
			c10.772-12.043,20.931-24.317,30.783-36.704c3.196-4.01,6.397-8.004,9.677-11.983c0.712-0.864,4.937-5.188,2.717-6.041
			c-0.276-0.106-0.58,0.074-0.751,0.195c-10.828,7.54-19.594,16.167-27.977,24.891c-4.31,4.489-8.946,8.837-13.195,13.354
			c-2.435,2.587-4.509,5.432-7.252,7.883c-2.049,1.827-3.654,3.843-4.967,5.938c-0.229,0.365,0.296,0.562,0.662,0.246
			c2.824-2.385,5.397-4.891,8.228-7.276c0.274-0.231,0.044-0.606-0.329-0.304c-2.083,1.692-4.029,3.448-6.039,5.171
			c2-2.381,4.419-4.609,6.521-6.948c2.628-2.931,5.352-5.818,8.155-8.682c5.428-5.531,10.903-11.065,16.468-16.541
			c5.677-5.593,11.793-10.996,18.698-15.978c1.823-1.313,0.839,0.003,0.413,0.716c-0.542,0.901-1.236,1.766-1.918,2.625
			c-1.145,1.434-2.405,2.827-3.623,4.236c-4.98,5.763-9.292,11.807-14.078,17.646C35.49,60.595,30.337,66.91,24.898,73.111
			c-5.349,6.097-10.901,12.122-16.231,18.231C6.335,94.015,4.134,96.845,2.7,99.78c-0.715,1.474-2.474,2.478-0.961,4.007
			c0.141,0.145,0.462,0.131,0.659,0.049c4.821-2.027,7.63-5.069,10.978-8.013c4.061-3.562,7.464-7.424,11.051-11.188
			c3.615-3.787,7.418-7.511,11.293-11.185c1.886-1.796,4.491-3.606,6.007-5.539c1.231-1.565,2.765-3.737,5.252-4.686
			c-1.411,3.661-4.691,7.038-7.213,10.4c-2.593,3.453-5.311,6.871-7.817,10.351c-2.585,3.594-5.194,7.147-7.311,10.87
			c-0.926,1.631-3.949,4.104-2.237,5.862c0.175,0.182,0.521,0.132,0.765,0.054c4.876-1.517,8.433-4.082,11.817-6.757
			c2.039-1.606,3.999-3.247,5.981-4.887c1.958-1.611,4.506-3.863,7.175-5.159c1.01,2.322-0.557,5.013-0.733,7.435
			c-0.095,1.249,0.326,2.984,2.804,2.862c0.657-0.031,1.251-0.174,1.798-0.409c-0.156,0.399-0.188,0.794,0.014,1.113
			c0.582,0.92,2.135,1.417,3.673,0.864c0.899-0.326,1.611-1.085,2.268-1.578c0.59-0.445,1.244-0.817,1.884-1.189
			c-1.675,2.771-3.274,5.558-4.744,8.385c-2.574,4.946-5.335,10.639-4.241,15.916c0.205,0.997,0.793,2.671,2.619,2.936
			c2.725,0.394,5.003-1.393,6.467-2.652c5.808-4.995,9.681-11.251,13.523-16.953c2.141-3.185,4.134-6.403,6.087-9.633
			c0.345,0.382,0.917,0.689,1.815,0.86c2.402,0.467,5.035-0.523,7.406-1.859c-1.021,1.065-1.79,2.212-1.945,3.547
			c-0.012,0.085,0.057,0.252,0.206,0.285c2.068,0.445,3.741-0.254,5.41-1.021c2.797-1.282,5.348-2.778,8.171-4.06
			c2.479-1.126,5.577-0.954,8.399-1.578c1.199-0.26,2.313-0.778,3.414-1.173c1.393-0.498,5.173-3.251,4.466-0.296
			c-0.037,0.16,0.104,0.322,0.379,0.222c1.818-0.688,3.533-1.95,5.893-0.474c0.423,0.262,2.334,0.054,2.918,0.048
			c1.635-0.006,3.258-0.308,4.852-0.517c2.172-0.286,3.602,0.064,5.598,0.404C136.771,85.495,137.045,85.114,136.758,85.061z
			 M109.144,35.276c-5.032,11.695-10.326,23.393-17.308,34.665c-3.367,5.437-7.241,10.729-11.604,15.854
			c-1.915,2.247-3.888,4.478-5.879,6.698c-2.058,2.294-4.746,5.48-8.891,6.365c-2.037,0.434-1.239-4.093-1.114-4.518
			c0.375-1.254,1.143-2.458,1.667-3.687c0.887-2.05,1.763-4.101,2.815-6.109c5.393-6.039,9.799-12.451,13.262-19.06
			c0.487-0.93-0.828-0.969-1.489-0.301c-0.704,0.71-1.37,1.439-2.01,2.172c13.67-19.141,28.76-37.833,42.45-56.965
			C116.933,18.655,112.75,26.896,109.144,35.276z M73.815,76.376c0.818-1.28,1.655-2.565,2.533-3.826
			C75.544,73.837,74.704,75.112,73.815,76.376z M66.888,84.451c-0.201,0.391-0.397,0.784-0.589,1.181
			c-0.116,0.121-0.222,0.25-0.337,0.368c-0.083,0.088-0.177,0.174-0.259,0.262C66.098,85.655,66.493,85.054,66.888,84.451z
			 M68.495,105.175c-2.234,3.118-4.528,6.295-7.338,9.208c-1.644,1.703-6.658,7.007-8.398,2.581
			c-0.949-2.406-0.083-5.108,0.583-7.489c0.989-3.531,2.74-6.963,4.583-10.336c1.562-2.874,3.253-5.709,5.014-8.524
			c0.684-0.65,1.36-1.301,2.02-1.959c-0.227,0.535-0.454,1.065-0.682,1.595c-1.045,2.461-2.973,5.163-2.304,7.779
			c0.572,2.256,1.39,3.132,4.711,2.087c2.82-0.886,4.935-2.842,6.63-4.464c1.441-1.378,2.815-2.807,4.144-4.25
			C74.642,96.041,71.737,100.653,68.495,105.175z"/>
		<path display="inline" fill="#FFFFFF" d="M196.309,23.343c-3.369,4.018-6.391,8.171-9.441,12.306
			c-2.211,2.886-4.418,5.769-6.633,8.653c-3.818,4.73-7.926,9.359-12.281,13.89c-5.531,5.756-11.027,11.517-16.93,17.119
			c-2.602,2.471-5.281,4.867-8.193,7.187c-0.078,0.067-3.383,2.156-3.076,0.593c0.105-0.557,0.525-1.119,0.859-1.634
			c0.441-0.672,1.016-1.347,1.668-1.972c-0.152,0.75-0.498,1.411-0.998,2.157c-0.152,0.22,0.225,0.246,0.373,0.074
			c0.918-1.098,1.486-2.054,1.707-3.298c0.047-0.265-0.277-0.467-0.629-0.234c-1.838,1.215-3.371,3.034-3.986,4.689
			c-0.484,1.302-0.176,2.493,2.205,1.743c1.227-0.39,2.23-1.3,3.08-1.967c1.701-1.332,3.332-2.658,4.867-4.073
			c3.559-3.281,7.012-6.607,10.383-9.971c3.729-3.726,7.404-7.488,10.955-11.302c-1.826,2.37-3.654,4.74-5.49,7.114
			c-4.734,6.107-9.459,12.221-13.766,18.453c-0.84,0.425-1.469,1.124-1.973,1.657c-1.893,1.991-3.104,4.46-4.479,6.608
			c-2.23,3.505-3.885,7.134-4.502,10.912c-0.123,0.755,0.887,0.512,1.336,0.089c1.631-1.549,2.242-4.121,3.066-5.875
			c1.613-3.445,3.625-6.783,5.77-10.095c0.506-0.785,1.025-1.561,1.547-2.337c0.896-0.098,1.881,0.391,2.902,0.594
			c1.145,0.232,3.088-0.331,3.572,0.702c0.033,0.082,0.139,0.173,0.285,0.17c1.506-0.034,2.803-0.004,4.254,0.276
			c0.344,0.067,0.805-0.497,0.445-0.612c-1.508-0.473-3.287-0.431-4.441-1.217c-0.84-0.561-3.252-0.472-4.229-0.693
			c-1.023-0.229-1.303-0.528-1.865-0.568c3.932-5.705,8.285-11.287,12.598-16.873c10.754-13.938,21.418-27.901,32.131-41.851
			C197.973,23.018,196.934,22.599,196.309,23.343z"/>
		<path display="inline" fill="#FFFFFF" d="M172.746,83.713c-0.26-0.01-0.518-0.022-0.762,0.045
			c-0.316,0.085-0.572,0.264-0.814,0.415c-0.135,0.082-0.258,0.218-0.203,0.34c0.068,0.165,0.326,0.053,0.432-0.021
			c0.166-0.112,0.332-0.253,0.549-0.337c0.16-0.064,0.395-0.048,0.572-0.058C172.758,84.091,173.041,83.722,172.746,83.713z"/>
		<path display="inline" fill="#FFFFFF" d="M201.922,90.726c-4.656-0.775-9.709-1.271-14.236-2.256
			c-1.729-0.368-2.598-0.54-4.389-0.486c-0.701,0.022-1.451,0.041-2.18,0c0.846-0.366,1.453-0.623,2.094-1.195
			c0.098-0.091,0.385-0.508-0.014-0.505c-1.879,0.016-4.121,0.124-5.732,0.791c-0.314,0.126-0.826,0.575-0.492,0.83
			c2.379,1.76,6.836,0.735,9.922,1.463c2.076,0.487,4.336,0.588,6.492,0.908c2.703,0.407,5.35,0.91,8.092,1.218
			C201.969,91.556,202.504,90.818,201.922,90.726z M180.896,87.866c-0.027,0.021-0.053,0.058-0.068,0.099
			c-0.754-0.058-1.473-0.188-2.096-0.452c0.654-0.156,1.357-0.264,1.998-0.362C182.848,86.808,182.127,87.107,180.896,87.866z"/>
		<path display="inline" fill="#FFFFFF" d="M174.295,85.675c-1.369-0.024-2.74-0.048-4.107-0.073
			c-0.762-0.014-1.414,1.123-0.645,1.108c1.4-0.024,2.797-0.044,4.197-0.069C174.348,86.631,175.02,85.689,174.295,85.675z"/>
	</g>
	<g display="none">
		<path display="inline" fill="#FFFFFF" d="M111.233,98.896c-0.987-3.46-4.823-6.691-7.341-9.057
			c-3.245-3.046-6.935-5.506-10.67-7.894C77.165,71.662,56.932,66.583,37.979,66.389c-0.679-0.013-1.359-0.01-2.042,0
			c-3.828-5.034-7.679-10.044-11.38-15.176c-2.656-3.68-5.743-7.389-7.89-11.386c-1.881-3.507-4.523-6.587-4.298-10.712
			c0.021-0.365-0.428,0.032-0.445,0.251c-0.054,0.626-0.47,1.76-0.284,2.483c0.451,1.739,1.419,3.284,2.255,4.866
			c2.286,4.33,4.737,8.387,7.521,12.423c4.059,5.89,8.423,11.548,12.687,17.286c-6.352,0.188-12.777,1.061-18.709,3.282
			c-3.864,1.443-9.017,3.651-10.394,7.952c-0.718,2.239,0.746,4.138,2.318,5.55c0.213,0.188,0.619-0.431,0.434-0.631
			c-5.362-5.74,2.539-9.476,7.344-11.289c6.459-2.446,13.523-2.959,20.38-3.002c1.133,1.54,2.259,3.084,3.36,4.642
			c5.39,7.614,11.155,14.965,17.104,22.147c6.065,7.329,12.1,15.407,19.377,21.576c0.452,0.382,1.204-0.858,0.87-1.257
			c-11.62-13.975-24.015-27.174-34.843-41.817c-1.306-1.77-2.628-3.523-3.956-5.279c16.552,0.193,33.993,4.673,48.651,12.182
			c7.144,3.661,14.072,8.294,19.574,14.179c1.202,1.282,2.269,2.68,3.279,4.119c1.377,1.955,1.278,3.215-1.123,3.082
			c-2.963-0.157-6.019-1.2-8.803-2.085c-15.536-4.935-29.69-13.42-45.485-17.66c-0.438-0.116-0.797,0.594-0.867,0.904
			c-0.362,1.625,0.247,2.577,1.424,3.75c0.507,0.499,1.368-0.74,0.962-1.173c-0.495-0.533-1-1.041-1.197-1.703
			c17.429,5.18,32.952,15.954,50.826,19.665C108.335,104.332,112.604,103.69,111.233,98.896z"/>
		<path display="inline" fill="#FFFFFF" d="M156.93,113.583c-0.734-4.057-4.736-7.901-6.904-11.196
			c-2.174-3.303-4.133-6.733-6.232-10.082c-0.389-0.62-0.814-1.266-1.242-1.933c2.771,0.618,5.48,1.513,8.094,2.715
			c0.812,0.373,1.852-1.402,1.088-1.883c-3.309-2.076-7.072-3.183-10.924-3.723c-0.945-1.745-1.688-3.578-1.807-5.446
			c0.025,0.006,0.051,0.012,0.08,0.015c0.416,0.053,0.863-0.906,0.375-0.992c-0.148-0.169-0.303-0.339-0.453-0.504
			c-0.182-0.527-0.764,0.166-0.797,0.441c-0.277,2.154,0.24,4.274,1.078,6.305c-1.629-0.169-3.268-0.243-4.885-0.261
			c-0.289-0.003-0.576,0.197-0.812,0.481c-0.65-1.209-1.389-2.361-2.324-3.387c-0.564-0.621-1.34,0.611-1.303,1.122
			c0.184,2.707,1.77,5.503,1.58,8.252c-1.764-1.126-2.707-4.476-3.293-6.1c-1.107-3.069-3.369-5.739-4.891-8.621
			c-0.416-0.784-1.56,0.808-1.359,1.398c1.395,4.089,2.888,8.139,3.854,12.361c0.242,1.062,0.421,2.134,0.429,3.229
			c0.008,0.627-3.233-3.365-3.597-3.73c-0.771-0.778-1.435-1.637-2.022-2.55c-1.312-3.661-2.975-7.296-4.584-10.709
			c-0.361-0.767-1.608,0.777-1.367,1.406c0.736,1.919,1.353,3.867,2.132,5.752c-0.59-0.695-1.187-1.391-1.782-2.061
			c-1.311-1.477-4.905-5.445-7.097-3.131c-1.958,2.066-1.003,5.665-0.361,8.083c0.8,3.013,2.479,5.287,4.511,7.541
			c1.396,1.545,7.363,8.962,9.826,5.641c1.521-2.058,0.936-4.971,0.304-7.379c0.239,0.343,0.473,0.689,0.698,1.052
			c1.152,1.794,3.856,3.133,4.651,0.4c0.682-2.339-0.338-5.361-1.068-7.729c0.375,0.748,0.73,1.511,1.051,2.3
			c0.756,1.859,1.836,4.674,4.049,5.093c0.582,0.104,0.977-0.724,1.092-1.143c0.592-2.095,0.137-3.972-0.404-5.882
			c2.258,3.938,3.461,8.541,7.193,11.439c0.531,0.42,1.414-1.026,0.854-1.478c-2.99-2.395-4.275-5.953-5.857-9.345
			c2.043,0.08,4.07,0.286,6.07,0.633c0.477,0.896,0.977,1.772,1.455,2.612c2.9,5.139,5.84,10.265,9.174,15.138
			c0.889,1.298,1.824,2.56,2.678,3.888c0.488,0.762,0.908,1.553,1.232,2.399c0.576,1.481-1.828,0.82-2.807,0.505
			c0.373-0.488,0.537-1.211,0.096-1.469c-3.09-1.805-5.926-4.249-8.521-6.694c-1.564-1.465-3.449-3.097-5.715-2.762
			c-0.682,0.1-1.502,1.475-0.986,2.068c4.002,4.654,8.48,9.191,14.471,11.108C153.959,117.517,157.506,116.758,156.93,113.583z
			 M118.353,99.411c-1.541-1.095-2.889-2.468-4.208-3.814c-2.845-2.894-4.803-5.672-5.746-9.782
			c-0.495-2.15-0.254-4.819,2.664-3.575c1.726,0.738,3.337,3.025,4.575,4.433c1.2,1.354,2.664,2.853,3.785,4.489
			c1.002,2.913,1.726,5.864,1.834,8.709C121.326,101.734,119.074,99.924,118.353,99.411z"/>
		<path display="inline" fill="#FFFFFF" d="M232.748,82.873c-14.053,3.544-27.639,6.563-42.104,3.92
			c-3.158-0.576-6.123-1.202-9.133-2.354c-2.357-0.908-4.752-1.097-7.158-0.342c-0.957,0.298-1.914,0.895-2.846,1.3
			c1.162-2.754,1.754-6.025,1.955-7.455c1.189-8.381,0.014-17.032-1.805-25.231c-1.912-8.628-5.377-16.882-9.428-24.71
			c-3.586-6.939-8.301-13.546-14.941-17.836c-4.051-2.619-8.602-4.835-13.473-3.275c-4.447,1.427-7.318,6.438-8.756,10.564
			c-3.951,11.347-0.149,24.694,3.592,35.507c4.615,13.349,11.863,25.065,22.037,34.918c3.023,2.931,6.42,6.324,10.068,8.507
			c2.344,1.411,3.758-0.066,3.484-2.523c-0.088-0.801-0.967,0.039-0.951,0.528c0.082,2.415-3.053-0.698-3.379-1.002
			c-0.723-0.66-1.439-1.326-2.133-2.022c-3.367-3.379-7.123-6.259-10.32-9.858c-6.635-7.469-11.764-15.971-15.439-25.232
			c-3.547-8.937-6.392-18.313-6.724-27.969c-0.286-8.245,2.595-21.6,13.552-19.553c8.139,1.523,14.77,9.375,18.975,15.921
			c4.842,7.536,8.475,16.23,10.984,24.8c2.717,9.28,4.09,19.25,2.973,28.891c-0.16,1.393-0.744,5.179-2.068,7.436
			c-0.396-0.035-0.783-0.174-1.152-0.465c1.746-5.163-1.719-10.681-4.059-15.271c-1.084-2.121-6.592-8.001-7.588-2.61
			c-0.73,3.942,1.355,8.467,2.588,12.187c1.088,3.288,2.848,9.194,6.744,10.111c1.525,0.358,2.76-0.382,3.754-1.654
			c0.709-0.099,1.477-0.551,2.027-0.838c1.631-0.867,2.809-1.586,4.791-1.598c3.234-0.02,6.6,2.02,9.799,2.627
			c7.584,1.437,14.672,2.22,22.395,1.424c8.045-0.829,15.781-3.185,23.492-5.52C233.008,84.048,233.494,82.687,232.748,82.873z
			 M162.205,81.074c-1.621-3.875-3.598-9.007-3.744-13.205c-0.039-1.237,3.232,2.185,3.479,2.508
			c0.674,0.898,1.24,1.757,1.764,2.753c1.545,2.949,3.951,6.955,3.654,10.562c-0.691-1.517-0.832-3.292-1.461-4.821
			c-0.369-0.907-1.375,0.066-1.543,0.622c-0.713,2.354,0.082,5.405,1.473,7.513C164.039,85.759,162.941,82.824,162.205,81.074z"/>
	</g>
	<g id="Layer_5">
		<g>
			<path fill="#FFFFFF" d="M239.346,53.081c-26.777,1.868-80.971,4.544-107.539,8.214c0.045-0.218,0.09-0.427,0.135-0.638
				c0.791-0.821,1.715-1.577,2.781-2.264c2.031,0.635,4.057,0.08,6.186-0.239c0.424,0.326,0.717,0.385,1.418,0.659
				c0.254,0.1,0.641-0.058,0.754-0.304c0.635-1.427,1.645-2.492,2.643-3.664c0.699-0.82,1.002-1.738,1.42-2.638
				c2.055,0.346,3.004-1.081,4.254-2.639c0.23,1.169,0.449,2.346,0.539,3.527c0.043,0.55,0.791,1.038,1.217,0.505
				c1.91-2.391,4.129-4.494,6.186-6.745c0.037,0.288,0.102,0.539,0.203,0.71c0.176,0.309,0.518,0.338,0.816,0.214
				c1.832-0.775,3.557-2.918,4.945-4.979c0.123,3.396,1.08,6.726,3.158,9.87c-0.561,0.153-1.119,0.307-1.658,0.477
				c-0.879,0.279-0.73,1.621,0.223,1.621h3.383c0.666,0,0.943-0.656,0.721-1.177c1.771-0.561,3.48-1.255,4.936-2.446
				c0.246-0.2,0.287-0.501,0.205-0.777c5.857-1.134,11.836-1.564,17.816-1.717c0.809-0.021,0.809-1.245,0-1.255
				c-8.461-0.118-16.969,0.573-25.084,3.067c-1.805-3.233-2.387-6.654-2.145-10.117c0.068-0.111,0.137-0.227,0.201-0.333
				c2.1-3.446,3.062-7.444,3.207-11.44c0.023-0.68-1.002-0.988-1.309-0.358c-1.947,3.981-3.301,8.089-3.609,12.136
				c-0.033,0.055-0.062,0.113-0.096,0.169c-1.172,1.964-2.732,3.65-4.34,5.256c-1.65,1.647-0.195,0.036,0.107-0.866
				c0.18-0.22,0.363-0.438,0.537-0.663c0.299-0.383,0.215-0.905-0.283-1.073c-0.875-0.294-1.451,0.479-1.744,1.47
				c-2.062,2.308-4.35,4.401-6.381,6.734c-0.182-1.187-0.43-2.368-0.668-3.543c-0.102-0.518-0.826-0.679-1.174-0.311
				c-0.742,0.789-2.438,3.358-3.752,3.899c0.049-0.08,0.092-0.161,0.143-0.233c0.297-0.441-0.098-1.031-0.592-1.031
				c-0.062-0.001-0.125-0.001-0.186-0.001c-0.322,0-0.564,0.213-0.662,0.503c-0.062,0.184-0.125,0.366-0.186,0.554
				c-0.822,1.407-1.404,2.82-2.561,4.119c-0.221,0.245-0.717,0.798-1.084,1.333c-0.354,0.005-0.684,0.012-1.002,0.073
				c-0.875,0.062-1.736,0.151-2.615,0.298c-0.359,0.061-1.184,0.107-1.941,0.146c0.033-0.017,0.062-0.034,0.096-0.047
				c0.686-0.334,0.346-1.438-0.381-1.413c-1.236,0.039-2.477,0.128-3.17,1.229c-0.086,0.142-0.102,0.307-0.08,0.47
				c-0.271,0.181-0.525,0.367-0.779,0.557c1.193-4.969,2.668-9.87,4.32-14.717c5.396-10.061,9.582-23.741,10.543-27.185
				c0.254-0.908-1.031-1.197-1.371-0.377c-3.684,8.938-7.443,17.906-10.598,27.049c-4.168,7.821-8.879,13.22-12.851,9.115
				c-0.497-0.51-1.234,0.247-0.775,0.775c5.021,5.721-4.88,7.088-9.353,7.349c0.896-1.346,1.894-2.613,2.717-4.012
				c0.406-0.691-0.501-1.314-1.066-0.821c-2.61,2.265-5.943,3.353-8.893,5.094c0.071-1.76-0.137-3.2-1.051-4.952
				c-0.2-0.383-0.746-0.419-1.039-0.132c-2.099,2.039-4.356,3.903-6.525,5.869c-0.188-0.914-0.984-1.48-2.468-0.899
				c-0.702,0.278-0.401,1.424,0.317,1.148c0.73-0.28,0.765,0.387,0.773,1.043c-0.171,0.163-0.35,0.319-0.52,0.489
				c-0.194,0.188-0.237,0.506-0.097,0.743c0.017,0.034,0.037,0.062,0.059,0.096c0.205,0.337,0.68,0.41,0.963,0.125
				c0.225-0.226,0.41-0.471,0.562-0.731c0.141-0.11,0.297-0.246,0.485-0.428c1.247-1.205,2.591-2.309,3.916-3.422
				c0.887-0.745,1.763-1.499,2.623-2.276c0.776-0.698,0.583,4.204,0.538,4.637c-0.051,0.511,0.628,0.87,1.036,0.595
				c2.297-1.554,4.889-2.59,7.275-3.957c-0.499,0.71-0.994,1.423-1.436,2.175c-0.251,0.434,0.068,1.021,0.579,1.013
				c4.35-0.092,15.098-1.756,12.932-7.186c3.131,1.163,6.325-1.252,9.307-5.368c-1.119,3.624-2.119,7.277-2.959,10.971
				c-0.566,0.599-1.062,1.23-1.494,1.895c-10.423,1.467-20.828,3.08-31.21,4.868c-6.889,1.188-13.67,2.623-20.41,4.189
				c-5.054-0.397-10.158-0.381-15.046-0.22c0.16-11.418,2.337-22.99,5.478-33.517c2.498-8.383,6.242-18.34,14.32-22.728
				c2.766-1.501,5.275-1.793,7.526-1.24c1.123,10.551,4.188,21.88,14.793,23.001c0.504,0.055,0.737-0.49,0.68-0.891
				c-1.079-7.518-3.631-16.364-10.163-21.033c-1.447-1.035-2.956-1.746-4.489-2.174c-0.459-4.243-0.619-8.278-0.852-11.277
				c-0.041-0.503-0.825-0.511-0.794,0c0.192,3.054,0.312,6.959,0.691,11.053c-3.517-0.69-7.132,0.155-10.438,2.436
				c-9.969,6.879-13.524,22.506-15.806,33.626c-1.336,6.529-2.509,14.551-2.762,22.809c-1.741,0.074-3.456,0.161-5.123,0.251
				C37.179,71.833,18.02,75.2,1.639,83.552c-0.967,0.49-0.369,1.704,0.493,1.817c15.056,1.973,30.362-1.344,44.92-4.949
				c4.514-1.119,8.996-2.274,13.476-3.425c0.538,16.515,5.485,32.715,20.818,38.742c10.279,4.035,25.667,2.374,31.428-8.146
				c5.379-9.822-0.788-22.037-8.885-28.184c-5.859-4.448-13.011-6.797-20.525-7.966c3.868-0.843,7.754-1.627,11.682-2.318
				c10.896-1.913,21.832-3.609,32.791-5.152c-1.166,3.036-1.117,6.571,0.334,10.49c0.334,0.9,1.562,0.731,1.646-0.225
				c0.326-3.635,0.857-7.216,1.545-10.764c26.736-3.674,81.113-6.388,107.988-8.673C240.439,54.708,240.457,53.006,239.346,53.081z
				 M103.593,34.513c-8.857-1.408-11.768-11.577-12.953-21.169C97.891,15.995,102.253,27.475,103.593,34.513z M49.237,77.839
				c-14.1,3.673-28.921,7.103-43.584,5.932c16.882-7.796,36.36-10.611,54.824-11.101c-0.009,0.751-0.009,1.498,0,2.25
				C56.737,75.881,52.996,76.858,49.237,77.839z M62.341,72.627c0.186-0.004,0.375-0.013,0.558-0.015
				c2.182-0.036,4.444-0.047,6.745-0.01c-2.427,0.599-4.852,1.212-7.28,1.827C62.349,73.831,62.346,73.229,62.341,72.627z
				 M109.777,89.271c3.132,5.4,3.937,12.238,0.889,17.832c-3.743,6.879-12.344,8.533-19.48,8.447
				c-14.801-0.174-23.459-11.554-26.726-24.88c-1.127-4.596-1.761-9.354-2.007-14.179c4.788-1.224,9.571-2.436,14.376-3.57
				C89.849,73.921,102.975,77.54,109.777,89.271z M129.594,64.138c-0.316,1.669-0.598,3.347-0.842,5.037
				C128.66,67.352,128.943,65.669,129.594,64.138z"/>
			<path fill="#FFFFFF" d="M237.656,41.608c-6.727-0.671-41.041-0.122-47.795-0.847c-0.639-0.065-0.621,0.916,0,0.99
				c6.586,0.818,41.172,1.504,47.795,0.848C238.291,42.534,238.291,41.674,237.656,41.608z"/>
		</g>
	</g>
</g>
</svg>
